<?xml version="1.0" standalone="no"?>
<!DOCTYPE svg PUBLIC "-//W3C//DTD SVG 20010904//EN"
 "http://www.w3.org/TR/2001/REC-SVG-20010904/DTD/svg10.dtd">
<svg version="1.0" xmlns="http://www.w3.org/2000/svg"
 width="180.000000pt" height="180.000000pt" viewBox="0 0 180.000000 180.000000"
 preserveAspectRatio="xMidYMid meet">
<metadata>
Created by potrace 1.11, written by Peter Selinger 2001-2013
</metadata>
<g transform="translate(0.000000,180.000000) scale(0.100000,-0.100000)"
fill="#000000" stroke="none">
<path d="M880 1542 c0 -43 -38 -168 -76 -250 -45 -98 -127 -221 -204 -304 -34
-38 -59 -68 -56 -68 4 0 59 43 123 95 98 80 119 93 135 84 18 -9 11 -18 -67
-92 -84 -78 -137 -119 -240 -180 -26 -15 -45 -30 -43 -32 2 -3 29 5 59 16 208
80 504 89 746 24 49 -13 89 -22 90 -21 1 1 -45 28 -102 59 -69 38 -135 86
-197 142 l-93 84 -27 123 c-20 92 -27 152 -27 236 -1 67 -5 112 -11 112 -5 0
-10 -12 -10 -28z"/>
<path d="M960 1430 c1 -52 50 -306 62 -314 8 -6 70 -54 139 -107 158 -122 167
-126 93 -48 -115 121 -200 252 -261 404 -18 44 -33 73 -33 65z"/>
<path d="M1538 755 c-9 -21 -8 -28 7 -45 10 -11 23 -20 30 -20 7 0 20 9 30 20
25 28 7 70 -30 70 -17 0 -29 -8 -37 -25z m62 0 c10 -13 10 -19 -5 -35 -28 -31
-71 4 -44 36 15 18 33 18 49 -1z"/>
<path d="M1560 740 c0 -20 19 -23 32 -5 9 12 0 25 -18 25 -8 0 -14 -9 -14 -20z"/>
<path d="M1452 520 c3 -178 3 -180 29 -206 35 -34 93 -39 97 -8 2 17 -4 23
-28 27 -39 8 -50 37 -50 132 l0 74 33 3 c27 2 32 7 32 28 0 21 -5 26 -32 28
-32 3 -33 4 -33 53 0 46 -2 49 -26 49 l-25 0 3 -180z"/>
<path d="M989 674 c-9 -11 -10 -20 -2 -32 15 -24 44 -27 59 -7 28 38 -27 75
-57 39z"/>
<path d="M248 584 c-33 -17 -48 -43 -48 -82 0 -39 33 -66 103 -86 49 -14 57
-20 57 -41 0 -48 -70 -57 -116 -14 -18 17 -23 17 -40 5 -19 -14 -18 -15 5 -40
56 -60 165 -57 197 5 30 60 -8 121 -85 135 -54 10 -73 22 -69 47 4 31 57 44
97 24 29 -14 32 -14 41 3 14 26 13 28 -20 45 -36 19 -87 19 -122 -1z"/>
<path d="M513 589 l-33 -10 0 -199 0 -200 25 0 c24 0 25 3 25 55 l0 55 55 0
c70 0 109 20 124 61 14 39 14 149 1 183 -21 56 -109 80 -197 55z m125 -55 c20
-13 22 -24 22 -94 0 -91 -7 -100 -84 -100 l-46 0 0 99 c0 86 2 100 18 104 36
10 68 6 90 -9z"/>
<path d="M855 590 c-11 -4 -31 -20 -45 -34 -23 -26 -25 -34 -25 -144 l0 -117
28 -3 27 -3 0 113 c0 126 5 138 57 138 30 0 33 3 33 30 0 26 -3 30 -27 29 -16
0 -37 -4 -48 -9z"/>
<path d="M997 594 c-4 -4 -7 -74 -7 -156 l0 -148 30 0 31 0 -3 153 c-3 144 -4
152 -23 155 -12 2 -24 0 -28 -4z"/>
<path d="M1195 586 l-50 -11 -3 -143 -3 -142 26 0 25 0 0 119 c0 130 1 131 61
131 65 0 69 -9 69 -135 l0 -115 31 0 31 0 -3 119 c-4 110 -6 121 -28 145 -20
21 -81 49 -101 45 -3 -1 -27 -6 -55 -13z"/>
<path d="M652 211 c2 -25 8 -46 14 -48 15 -5 10 65 -5 80 -10 9 -12 2 -9 -32z"/>
<path d="M920 212 c0 -22 4 -43 9 -46 5 -4 7 12 4 36 -8 57 -13 61 -13 10z"/>
<path d="M1010 224 c-16 -41 -9 -59 23 -60 20 -1 27 4 27 17 0 11 -4 19 -10
19 -5 0 -9 10 -7 21 3 33 -21 35 -33 3z m20 -34 c0 -5 -5 -10 -11 -10 -5 0 -7
5 -4 10 3 6 8 10 11 10 2 0 4 -4 4 -10z"/>
<path d="M1270 212 c0 -23 4 -42 8 -42 9 0 8 67 -1 77 -4 3 -7 -12 -7 -35z"/>
<path d="M694 216 c-3 -8 -4 -25 -1 -38 4 -21 4 -20 6 5 0 15 6 27 11 27 6 0
10 5 10 10 0 15 -20 12 -26 -4z"/>
<path d="M733 198 c2 -26 7 -34 25 -36 21 -3 23 0 20 30 -2 25 -8 34 -25 36
-18 3 -21 -1 -20 -30z"/>
<path d="M794 204 c11 -44 24 -51 36 -19 13 35 6 59 -8 25 -7 -17 -11 -19 -11
-8 -1 9 -6 20 -12 24 -9 5 -10 -1 -5 -22z"/>
<path d="M857 224 c-11 -11 -8 -52 3 -59 6 -4 19 -4 28 0 15 6 15 8 -3 15 -18
8 -18 9 -2 9 12 1 17 7 15 18 -3 19 -29 29 -41 17z"/>
<path d="M1117 223 c-4 -3 -6 -18 -6 -32 1 -21 2 -22 6 -6 3 11 10 26 15 33
11 12 -3 18 -15 5z"/>
<path d="M1145 209 c-8 -25 16 -56 36 -43 9 5 8 9 -7 15 -17 7 -17 8 4 8 17 1
23 6 20 19 -5 26 -45 28 -53 1z m35 1 c0 -5 -5 -10 -11 -10 -5 0 -7 5 -4 10 3
6 8 10 11 10 2 0 4 -4 4 -10z"/>
<path d="M1211 198 c1 -23 3 -26 6 -10 5 27 23 29 23 2 0 -11 5 -20 11 -20 6
0 9 12 7 28 -2 19 -9 28 -25 30 -20 3 -23 -1 -22 -30z"/>
<path d="M1336 208 c-4 -15 0 -27 11 -35 22 -17 33 -8 33 28 0 22 -5 29 -19
29 -11 0 -21 -9 -25 -22z"/>
<path d="M1423 214 c-7 -20 9 -49 27 -49 7 0 15 6 18 13 2 7 -2 10 -12 6 -11
-4 -16 0 -16 15 0 14 5 19 15 15 8 -4 15 -1 15 5 0 17 -40 13 -47 -5z"/>
<path d="M1482 201 c-1 -30 23 -50 41 -32 16 16 3 56 -19 59 -17 2 -21 -2 -22
-27z m28 -11 c0 -5 -5 -10 -11 -10 -5 0 -7 5 -4 10 3 6 8 10 11 10 2 0 4 -4 4
-10z"/>
<path d="M1547 223 c-4 -3 -6 -18 -6 -32 1 -21 2 -22 6 -6 3 11 10 26 15 33
11 12 -3 18 -15 5z"/>
</g>
</svg>
