<?xml version="1.0" standalone="no"?>
<!DOCTYPE svg PUBLIC "-//W3C//DTD SVG 20010904//EN"
 "http://www.w3.org/TR/2001/REC-SVG-20010904/DTD/svg10.dtd">
<svg version="1.0" xmlns="http://www.w3.org/2000/svg"
 width="1181.000000pt" height="1181.000000pt" viewBox="0 0 1181.000000 1181.000000"
 preserveAspectRatio="xMidYMid meet">
<metadata>
Created by potrace 1.11, written by Peter Selinger 2001-2013
</metadata>
<g transform="translate(0.000000,1181.000000) scale(0.100000,-0.100000)"
fill="#000000" stroke="none">
<path d="M5821 10750 c-1 -36 -4 -78 -5 -95 -2 -16 -6 -75 -10 -130 -5 -55 -9
-102 -11 -105 -2 -3 -6 -32 -9 -65 -6 -54 -10 -83 -22 -150 -2 -11 -9 -47 -14
-80 -29 -163 -56 -282 -110 -484 -44 -164 -146 -479 -179 -556 -5 -11 -30 -73
-55 -138 -194 -495 -512 -1076 -855 -1562 -93 -131 -247 -340 -271 -366 -8 -9
-26 -31 -40 -50 -174 -230 -572 -663 -847 -921 -70 -66 -72 -77 -4 -20 25 21
105 85 176 143 72 58 177 143 235 190 58 47 258 208 445 359 187 151 345 279
352 285 6 5 62 51 123 100 62 50 167 134 233 188 131 107 126 105 211 68 22
-11 74 -32 114 -47 40 -15 75 -31 78 -35 4 -7 -13 -25 -111 -114 -16 -15 -86
-80 -155 -145 -69 -64 -138 -129 -155 -144 -16 -15 -57 -53 -90 -84 -34 -31
-112 -105 -175 -163 -63 -59 -131 -122 -151 -140 -20 -19 -87 -81 -149 -139
-63 -58 -128 -118 -146 -135 -17 -16 -80 -75 -140 -130 -59 -55 -115 -107
-124 -115 -17 -17 -153 -101 -655 -405 -170 -103 -332 -202 -360 -220 -27 -18
-65 -40 -82 -49 -18 -9 -33 -18 -33 -20 0 -1 16 -3 35 -4 21 -1 89 20 173 53
381 150 754 263 1152 350 8 2 35 8 60 14 76 17 404 75 490 87 25 3 53 8 64 10
10 2 44 6 75 10 31 3 64 8 73 9 9 2 49 7 90 10 40 4 87 8 103 10 231 29 565
45 905 44 336 -1 515 -9 795 -35 82 -8 131 -12 190 -19 28 -3 66 -7 85 -9 19
-2 55 -7 80 -11 25 -3 56 -8 70 -10 14 -2 43 -6 65 -10 22 -3 55 -7 73 -10 18
-2 45 -6 60 -9 15 -3 43 -8 62 -11 19 -3 67 -12 105 -20 39 -8 81 -16 95 -18
197 -36 628 -146 800 -204 25 -8 52 -16 60 -18 23 -5 268 -90 329 -114 29 -12
55 -20 57 -19 2 2 -18 15 -44 28 -26 14 -72 39 -102 56 -55 32 -400 223 -855
474 -132 73 -260 144 -285 158 -25 14 -61 34 -80 44 -41 22 -66 44 -290 248
-15 14 -59 53 -97 87 -38 34 -83 74 -100 90 -16 15 -63 57 -103 93 -40 36 -85
76 -100 90 -15 14 -65 59 -110 100 -46 41 -88 80 -94 85 -6 6 -49 44 -95 85
-46 41 -94 84 -106 95 -12 11 -59 54 -106 96 -46 41 -99 89 -116 105 -30 27
-35 41 -63 174 -16 80 -48 231 -70 335 -22 105 -42 199 -44 210 -3 11 -23 108
-46 215 -23 107 -43 202 -45 211 -2 9 -13 61 -25 115 -12 55 -23 108 -26 119
-2 11 -8 43 -14 70 -6 28 -12 59 -14 70 -20 99 -80 373 -93 425 -15 57 -18
158 -23 825 -3 418 -7 731 -9 695z"/>
<path d="M6264 9720 c5 -25 34 -194 41 -240 2 -14 11 -70 20 -125 9 -55 18
-111 20 -125 10 -63 46 -288 51 -315 3 -16 7 -46 10 -65 2 -19 6 -42 9 -50 2
-8 7 -35 10 -60 3 -25 10 -67 15 -95 5 -27 12 -70 15 -95 3 -25 8 -52 10 -60
2 -8 7 -35 10 -60 9 -65 113 -706 124 -765 6 -27 13 -72 16 -100 l7 -50 391
-302 c216 -166 401 -309 412 -318 138 -107 824 -637 865 -668 30 -23 60 -46
67 -51 6 -6 24 -21 40 -32 15 -12 66 -51 113 -88 105 -81 92 -71 173 -134 37
-30 67 -49 67 -43 0 5 -6 14 -14 18 -39 22 -352 328 -527 514 -153 162 -243
264 -378 429 -57 69 -111 134 -120 145 -53 64 -264 354 -358 491 -449 660
-766 1293 -1010 2019 -46 138 -82 239 -79 225z"/>
<path d="M8760 5866 c0 -2 8 -10 18 -17 15 -13 16 -12 3 4 -13 16 -21 21 -21
13z"/>
<path d="M10327 5146 c-58 -21 -101 -55 -135 -105 -38 -57 -50 -100 -46 -169
7 -144 119 -253 264 -257 244 -6 372 274 210 458 -66 76 -195 108 -293 73z
m188 -45 c22 -10 54 -34 72 -52 167 -176 -8 -457 -239 -384 -205 64 -221 347
-24 436 53 24 139 24 191 0z"/>
<path d="M10310 4886 c0 -139 1 -145 20 -143 18 1 20 8 20 64 l0 63 35 0 c38
0 59 -18 103 -87 25 -39 34 -44 70 -34 5 2 -50 86 -71 109 -17 19 -18 22 -4
22 25 0 57 40 57 72 0 17 -10 39 -25 53 -22 23 -32 25 -115 25 l-90 0 0 -144z
m175 93 c19 -19 9 -54 -18 -66 -18 -8 -74 -10 -109 -4 -9 1 -11 75 -3 83 11
10 117 0 130 -13z"/>
<path d="M9609 4602 c0 -15 0 -511 -1 -1102 0 -1050 1 -1077 20 -1157 32 -127
82 -216 171 -304 73 -71 181 -139 246 -154 11 -2 40 -9 65 -16 70 -17 270 -12
290 7 3 3 5 71 5 151 l1 145 -51 -7 c-151 -22 -232 3 -323 96 -38 39 -89 137
-98 189 -4 27 -8 941 -5 1117 l1 32 158 0 c86 -1 180 0 207 0 l50 1 -1 153
c-1 83 -2 155 -3 160 0 4 -93 6 -206 5 l-205 -3 -1 30 c0 17 0 177 -1 356 l0
326 -159 1 -159 0 -1 -26z"/>
<path d="M6602 4547 c-48 -15 -118 -87 -131 -133 -18 -65 -13 -126 14 -180 32
-61 73 -94 139 -111 142 -37 272 56 281 200 10 162 -143 275 -303 224z"/>
<path d="M3808 3956 c-1 -2 -48 -6 -104 -10 -55 -4 -109 -8 -120 -10 -10 -2
-39 -7 -64 -10 -56 -8 -100 -15 -120 -21 -8 -2 -29 -7 -47 -10 -44 -7 -271
-73 -291 -84 -16 -9 -17 -113 -17 -1330 l0 -1321 35 -1 c38 -1 179 -1 246 0
l42 1 0 350 c-1 193 2 353 5 356 2 3 146 6 318 8 288 2 321 4 399 25 164 44
292 113 385 210 60 61 97 123 127 211 23 64 23 71 23 580 l0 515 -28 78 c-70
199 -232 342 -471 416 -91 28 -107 31 -206 37 -47 3 -90 7 -97 9 -6 2 -13 2
-15 1z m204 -347 c135 -38 223 -102 268 -195 l24 -49 0 -455 c0 -317 -4 -467
-12 -496 -18 -61 -73 -118 -148 -154 -121 -57 -193 -66 -586 -74 -170 -4 -188
-3 -189 12 0 22 0 1365 1 1373 1 17 82 36 195 46 39 3 71 7 73 8 2 2 70 3 152
3 120 1 163 -3 222 -19z"/>
<path d="M1837 3944 c-1 -1 -25 -5 -52 -8 -160 -19 -354 -105 -450 -200 -113
-113 -156 -225 -151 -401 6 -213 95 -355 284 -453 67 -35 204 -88 252 -97 8
-2 84 -17 168 -34 317 -65 405 -132 406 -311 1 -134 -56 -205 -204 -256 -83
-28 -280 -27 -375 3 -117 37 -217 111 -330 245 l-40 48 -110 -71 c-60 -38
-116 -76 -123 -82 -10 -10 -2 -28 40 -87 127 -182 296 -302 504 -362 68 -19
103 -22 244 -22 141 0 176 3 243 22 230 66 372 177 437 343 29 72 35 117 34
234 -2 270 -153 450 -463 555 -61 20 -206 54 -277 65 -53 7 -176 46 -235 74
-86 41 -139 121 -139 211 0 60 23 120 60 159 61 63 234 113 379 110 151 -3
261 -43 346 -127 l49 -48 90 105 c49 58 96 114 105 125 15 17 13 20 -24 53
-127 110 -273 176 -439 198 -47 7 -225 13 -229 9z"/>
<path d="M5790 3928 c-36 -4 -74 -9 -85 -11 -221 -50 -418 -189 -506 -357 -70
-136 -71 -142 -71 -960 l-1 -725 162 -1 161 -2 0 717 c0 614 2 725 15 769 45
152 220 256 430 256 57 0 163 -12 176 -20 3 -2 6 71 6 161 0 145 -1 165 -16
166 -9 0 -27 2 -39 5 -44 8 -167 9 -232 2z"/>
<path d="M6530 2896 l0 -1023 160 0 160 0 0 1022 0 1023 -160 0 -160 1 0
-1023z"/>
<path d="M8189 3916 c-2 -2 -35 -6 -74 -10 -38 -3 -81 -8 -95 -11 -14 -3 -41
-8 -60 -11 -82 -13 -307 -75 -421 -116 l-56 -20 1 -936 1 -937 160 0 160 0 1
800 c1 440 2 807 3 816 1 12 26 24 84 42 106 33 115 35 157 42 19 3 58 9 87
14 91 14 251 5 324 -18 130 -41 225 -124 260 -226 10 -32 13 -183 14 -755 l0
-715 161 -2 161 -1 0 708 c0 389 -3 732 -7 761 -30 218 -154 378 -377 488 -60
30 -175 67 -234 76 -44 7 -245 16 -250 11z"/>
<path d="M6259 1643 c0 -10 -1 -111 -1 -225 0 -152 4 -214 14 -234 30 -63 141
-99 150 -50 7 33 -1 46 -28 46 -13 0 -33 9 -44 20 -18 18 -20 33 -20 135 0
124 -2 120 58 115 19 -1 22 3 22 34 0 35 -1 36 -40 36 l-40 0 0 70 0 70 -35 0
c-26 0 -35 -4 -36 -17z"/>
<path d="M5284 1514 c-45 -15 -80 -54 -88 -98 -2 -17 -4 -91 -3 -165 l2 -134
33 -2 c23 -1 32 3 33 14 0 9 0 74 1 144 0 117 1 130 22 153 17 20 32 26 64 27
41 1 42 2 42 34 0 24 -5 33 -17 34 -10 0 -25 2 -34 4 -8 1 -33 -3 -55 -11z"/>
<path d="M5525 1518 c-39 -14 -72 -44 -83 -77 -13 -37 -11 -220 2 -253 41 -96
213 -111 280 -24 l25 34 -32 16 c-30 14 -33 14 -48 -5 -20 -26 -90 -40 -121
-25 -28 14 -51 58 -42 80 5 13 25 16 125 16 l119 0 0 69 c0 88 -12 120 -56
150 -40 28 -121 37 -169 19z m129 -79 c20 -15 26 -29 26 -57 l0 -37 -77 1
c-43 1 -83 2 -89 3 -6 0 -10 13 -8 29 1 15 2 32 3 39 1 18 51 42 87 43 17 0
43 -9 58 -21z"/>
<path d="M6799 1520 c-32 -9 -70 -30 -86 -45 -9 -10 -7 -17 11 -34 l22 -21 39
20 c22 11 51 20 65 20 35 0 85 -33 87 -57 1 -19 -4 -20 -70 -19 -46 0 -83 -5
-102 -14 -77 -39 -98 -152 -39 -210 39 -40 73 -48 185 -46 l94 1 2 155 c3 139
1 158 -17 187 -33 54 -122 84 -191 63z m129 -214 c5 -3 9 -32 10 -65 l1 -61
-37 -1 c-94 -3 -128 10 -137 52 -8 34 9 67 38 79 21 9 109 6 125 -4z"/>
<path d="M7382 1509 c-63 -32 -75 -61 -74 -195 1 -128 10 -152 73 -185 76 -38
183 -17 220 45 24 40 24 39 -12 55 -27 12 -33 12 -40 0 -5 -8 -9 -17 -9 -20 0
-10 -50 -29 -75 -29 -35 0 -74 20 -81 42 -5 16 -8 120 -5 184 1 14 13 27 35
38 48 23 80 20 115 -10 30 -25 33 -25 56 -10 31 21 31 27 -1 60 -49 48 -133
59 -202 25z"/>
<path d="M7774 1519 c-23 -5 -54 -21 -69 -35 l-27 -25 23 -19 c27 -24 22 -24
61 0 18 11 46 20 61 20 27 0 86 -27 88 -40 0 -3 2 -12 4 -21 2 -14 -8 -16 -69
-15 -87 1 -137 -21 -160 -69 -33 -69 -9 -156 51 -185 36 -17 230 -23 239 -8
12 18 11 291 0 318 -29 71 -107 101 -202 79z m136 -219 c3 -5 6 -34 5 -62 -1
-52 -2 -53 -36 -58 -83 -12 -139 16 -139 70 0 47 41 72 109 66 30 -3 57 -10
61 -16z"/>
<path d="M8185 1516 c-95 -35 -104 -58 -102 -251 l2 -150 33 -1 32 -1 0 86 c1
245 3 250 95 255 26 1 30 5 31 34 1 17 -4 33 -10 33 -6 1 -20 3 -31 4 -11 1
-33 -3 -50 -9z"/>
<path d="M5888 1504 l-46 -14 1 -187 c2 -181 3 -188 22 -187 54 2 51 -7 50
154 0 83 2 156 6 162 4 6 32 13 62 16 50 4 58 2 82 -22 25 -25 26 -31 25 -124
-2 -200 -4 -188 33 -188 l32 1 1 152 c1 174 -6 198 -65 231 -46 26 -130 28
-203 6z"/>
</g>
</svg>
