<svg viewBox="0 0 1177.9 167.8" xmlns="http://www.w3.org/2000/svg" xmlns:xlink="http://www.w3.org/1999/xlink"><linearGradient id="a" gradientUnits="userSpaceOnUse" x1="588.94" x2="588.94" y2="167.83"><stop offset=".15" stop-color="#b3b3b3" stop-opacity="0"/><stop offset="1" stop-color="#b3b3b3"/></linearGradient><path d="m588.9 0c-325.2 0-588.9 37.6-588.9 84 0 44.6 243.3 81 550.9 83.8v-3c-142.9-1.3-275.9-9.8-378-24.4-53.9-7.7-96.2-16.6-125.7-26.6s-44.2-20.2-44.2-29.8 15.7-20.2 44.2-29.9 71.8-18.8 125.7-26.5c111.1-15.9 258.9-24.6 416-24.6s304.9 8.7 416 24.6c53.9 7.7 96.2 16.6 125.7 26.6s44.2 20.2 44.2 29.9-15.7 20.2-44.2 29.9-71.8 18.9-125.7 26.6c-102 14.4-235 22.9-377.9 24.2v3c307.5-2.8 550.9-39.3 550.9-83.8 0-46.4-263.7-84-589-84z" fill="url(#a)"/></svg>